<svg  viewBox="0 0 20 19" fill="none" >
<path d="M17.5 0.75H2.5C1.90326 0.75 1.33097 0.987053 0.90901 1.40901C0.487053 1.83097 0.25 2.40326 0.25 3V13.5C0.25 14.0967 0.487053 14.669 0.90901 15.091C1.33097 15.5129 1.90326 15.75 2.5 15.75H17.5C18.0967 15.75 18.669 15.5129 19.091 15.091C19.5129 14.669 19.75 14.0967 19.75 13.5V3C19.75 2.40326 19.5129 1.83097 19.091 1.40901C18.669 0.987053 18.0967 0.75 17.5 0.75ZM18.25 13.5C18.25 13.6989 18.171 13.8897 18.0303 14.0303C17.8897 14.171 17.6989 14.25 17.5 14.25H2.5C2.30109 14.25 2.11032 14.171 1.96967 14.0303C1.82902 13.8897 1.75 13.6989 1.75 13.5V3C1.75 2.80109 1.82902 2.61032 1.96967 2.46967C2.11032 2.32902 2.30109 2.25 2.5 2.25H17.5C17.6989 2.25 17.8897 2.32902 18.0303 2.46967C18.171 2.61032 18.25 2.80109 18.25 3V13.5ZM13.75 18C13.75 18.1989 13.671 18.3897 13.5303 18.5303C13.3897 18.671 13.1989 18.75 13 18.75H7C6.80109 18.75 6.61032 18.671 6.46967 18.5303C6.32902 18.3897 6.25 18.1989 6.25 18C6.25 17.8011 6.32902 17.6103 6.46967 17.4697C6.61032 17.329 6.80109 17.25 7 17.25H13C13.1989 17.25 13.3897 17.329 13.5303 17.4697C13.671 17.6103 13.75 17.8011 13.75 18ZM13.4163 7.62562L8.91625 4.62562C8.80327 4.55025 8.67195 4.50696 8.53629 4.50039C8.40064 4.49382 8.26575 4.52421 8.14601 4.58831C8.02628 4.65241 7.9262 4.74782 7.85645 4.86436C7.7867 4.9809 7.74991 5.11419 7.75 5.25V11.25C7.74991 11.3858 7.7867 11.5191 7.85645 11.6356C7.9262 11.7522 8.02628 11.8476 8.14601 11.9117C8.26575 11.9758 8.40064 12.0062 8.53629 11.9996C8.67195 11.993 8.80327 11.9498 8.91625 11.8744L13.4163 8.87438C13.5191 8.80591 13.6035 8.71309 13.6618 8.60416C13.7202 8.49523 13.7507 8.37357 13.7507 8.25C13.7507 8.12643 13.7202 8.00477 13.6618 7.89584C13.6035 7.78691 13.5191 7.69409 13.4163 7.62562ZM9.25 9.84844V6.65625L11.6481 8.25L9.25 9.84844Z" fill="currentColor"/>
</svg>
