<svg  viewBox="0 0 27 27" fill="none" >
<path d="M26.7075 25.2925L20.4488 19.035C22.2628 16.8571 23.1674 14.0637 22.9743 11.2359C22.7812 8.40811 21.5054 5.76358 19.4122 3.85248C17.319 1.94137 14.5696 0.910828 11.7359 0.975228C8.90222 1.03963 6.20246 2.19401 4.19824 4.19824C2.19401 6.20246 1.03963 8.90222 0.975228 11.7359C0.910828 14.5696 1.94137 17.319 3.85248 19.4122C5.76358 21.5054 8.40811 22.7812 11.2359 22.9743C14.0637 23.1674 16.8571 22.2628 19.035 20.4488L25.2925 26.7075C25.3854 26.8004 25.4957 26.8741 25.6171 26.9244C25.7385 26.9747 25.8686 27.0006 26 27.0006C26.1314 27.0006 26.2615 26.9747 26.3829 26.9244C26.5043 26.8741 26.6146 26.8004 26.7075 26.7075C26.8004 26.6146 26.8741 26.5043 26.9244 26.3829C26.9747 26.2615 27.0006 26.1314 27.0006 26C27.0006 25.8686 26.9747 25.7385 26.9244 25.6171C26.8741 25.4957 26.8004 25.3854 26.7075 25.2925ZM3.00001 12C3.00001 10.22 3.52785 8.47992 4.51678 6.99988C5.50572 5.51984 6.91132 4.36628 8.55586 3.68509C10.2004 3.00391 12.01 2.82568 13.7558 3.17294C15.5017 3.52021 17.1053 4.37738 18.364 5.63605C19.6226 6.89472 20.4798 8.49837 20.8271 10.2442C21.1743 11.99 20.9961 13.7996 20.3149 15.4442C19.6337 17.0887 18.4802 18.4943 17.0001 19.4832C15.5201 20.4722 13.78 21 12 21C9.61387 20.9974 7.32623 20.0483 5.63897 18.361C3.95172 16.6738 3.00266 14.3861 3.00001 12Z" fill="currentColor"/>
</svg>
