<svg viewBox="0 0 40 41" fill="currentColor" >
<path d="M13.25 16.5C12.2116 16.5 11.1966 16.8079 10.3333 17.3848C9.4699 17.9617 8.79699 18.7816 8.39963 19.7409C8.00227 20.7002 7.8983 21.7558 8.10088 22.7742C8.30345 23.7926 8.80346 24.7281 9.53769 25.4623C10.2719 26.1965 11.2074 26.6966 12.2258 26.8991C13.2442 27.1017 14.2998 26.9977 15.2591 26.6004C16.2184 26.203 17.0383 25.5301 17.6152 24.6667C18.1921 23.8034 18.5 22.7884 18.5 21.75C18.5 20.3576 17.9469 19.0223 16.9623 18.0377C15.9777 17.0531 14.6424 16.5 13.25 16.5ZM13.25 24C12.805 24 12.37 23.868 12 23.6208C11.63 23.3736 11.3416 23.0222 11.1713 22.611C11.001 22.1999 10.9564 21.7475 11.0432 21.311C11.13 20.8746 11.3443 20.4737 11.659 20.159C11.9737 19.8443 12.3746 19.63 12.811 19.5432C13.2475 19.4564 13.6999 19.501 14.111 19.6713C14.5222 19.8416 14.8736 20.13 15.1208 20.5C15.368 20.87 15.5 21.305 15.5 21.75C15.5 22.3467 15.2629 22.919 14.841 23.341C14.419 23.7629 13.8467 24 13.25 24ZM26.75 16.5C25.7116 16.5 24.6966 16.8079 23.8333 17.3848C22.9699 17.9617 22.297 18.7816 21.8996 19.7409C21.5023 20.7002 21.3983 21.7558 21.6009 22.7742C21.8034 23.7926 22.3035 24.7281 23.0377 25.4623C23.7719 26.1965 24.7074 26.6966 25.7258 26.8991C26.7442 27.1017 27.7998 26.9977 28.7591 26.6004C29.7184 26.203 30.5383 25.5301 31.1152 24.6667C31.6921 23.8034 32 22.7884 32 21.75C32 20.3576 31.4469 19.0223 30.4623 18.0377C29.4777 17.0531 28.1424 16.5 26.75 16.5ZM26.75 24C26.305 24 25.87 23.868 25.5 23.6208C25.13 23.3736 24.8416 23.0222 24.6713 22.611C24.501 22.1999 24.4564 21.7475 24.5432 21.311C24.63 20.8746 24.8443 20.4737 25.159 20.159C25.4737 19.8443 25.8746 19.63 26.311 19.5432C26.7475 19.4564 27.1999 19.501 27.611 19.6713C28.0222 19.8416 28.3736 20.13 28.6208 20.5C28.868 20.87 29 21.305 29 21.75C29 22.3467 28.7629 22.919 28.341 23.341C27.919 23.7629 27.3467 24 26.75 24ZM20 0C9.24688 0 0.5 8.41125 0.5 18.75C0.5 25.1437 3.92563 31.125 9.5 34.5525V37.5C9.5 38.2956 9.81607 39.0587 10.3787 39.6213C10.9413 40.1839 11.7044 40.5 12.5 40.5H27.5C28.2956 40.5 29.0587 40.1839 29.6213 39.6213C30.1839 39.0587 30.5 38.2956 30.5 37.5V34.5525C36.0744 31.125 39.5 25.1437 39.5 18.75C39.5 8.41125 30.7531 0 20 0ZM28.2725 32.3794C28.0383 32.5093 27.8431 32.6995 27.7073 32.9303C27.5714 33.1611 27.4999 33.4241 27.5 33.6919V37.5H24.5V33C24.5 32.6022 24.342 32.2206 24.0607 31.9393C23.7794 31.658 23.3978 31.5 23 31.5C22.6022 31.5 22.2206 31.658 21.9393 31.9393C21.658 32.2206 21.5 32.6022 21.5 33V37.5H18.5V33C18.5 32.6022 18.342 32.2206 18.0607 31.9393C17.7794 31.658 17.3978 31.5 17 31.5C16.6022 31.5 16.2206 31.658 15.9393 31.9393C15.658 32.2206 15.5 32.6022 15.5 33V37.5H12.5V33.6919C12.5001 33.4241 12.4286 33.1611 12.2927 32.9303C12.1569 32.6995 11.9617 32.5093 11.7275 32.3794C6.65187 29.5669 3.5 24.345 3.5 18.75C3.5 10.065 10.9025 3 20 3C29.0975 3 36.5 10.065 36.5 18.75C36.5 24.3431 33.3481 29.5669 28.2725 32.3794Z" fill="currentColor"/>
</svg>
