<svg viewBox="0 0 20 20" fill="none"  >
<path d="M10 0.25C8.07164 0.25 6.18657 0.821828 4.58319 1.89317C2.97982 2.96451 1.73013 4.48726 0.992179 6.26884C0.254225 8.05042 0.061142 10.0108 0.437348 11.9021C0.813554 13.7934 1.74215 15.5307 3.10571 16.8943C4.46928 18.2579 6.20656 19.1865 8.09787 19.5627C9.98919 19.9389 11.9496 19.7458 13.7312 19.0078C15.5127 18.2699 17.0355 17.0202 18.1068 15.4168C19.1782 13.8134 19.75 11.9284 19.75 10C19.7473 7.41498 18.7192 4.93661 16.8913 3.10872C15.0634 1.28084 12.585 0.25273 10 0.25ZM10 18.25C8.36831 18.25 6.77326 17.7661 5.41655 16.8596C4.05984 15.9531 3.00242 14.6646 2.378 13.1571C1.75358 11.6496 1.5902 9.99085 1.90853 8.3905C2.22685 6.79016 3.01259 5.32015 4.16637 4.16637C5.32016 3.01259 6.79017 2.22685 8.39051 1.90852C9.99085 1.59019 11.6497 1.75357 13.1571 2.37799C14.6646 3.00242 15.9531 4.05984 16.8596 5.41655C17.7661 6.77325 18.25 8.3683 18.25 10C18.2475 12.1873 17.3775 14.2843 15.8309 15.8309C14.2843 17.3775 12.1873 18.2475 10 18.25ZM7.75 8.125C7.75 8.3475 7.68402 8.56501 7.56041 8.75002C7.43679 8.93502 7.26109 9.07922 7.05552 9.16436C6.84996 9.24951 6.62376 9.27179 6.40553 9.22838C6.1873 9.18498 5.98684 9.07783 5.82951 8.9205C5.67217 8.76316 5.56503 8.56271 5.52162 8.34448C5.47821 8.12625 5.50049 7.90005 5.58564 7.69448C5.67079 7.48891 5.81498 7.31321 5.99999 7.1896C6.18499 7.06598 6.4025 7 6.625 7C6.92337 7 7.20952 7.11853 7.4205 7.3295C7.63148 7.54048 7.75 7.82663 7.75 8.125ZM14.5 8.125C14.5 8.3475 14.434 8.56501 14.3104 8.75002C14.1868 8.93502 14.0111 9.07922 13.8055 9.16436C13.6 9.24951 13.3738 9.27179 13.1555 9.22838C12.9373 9.18498 12.7368 9.07783 12.5795 8.9205C12.4222 8.76316 12.315 8.56271 12.2716 8.34448C12.2282 8.12625 12.2505 7.90005 12.3356 7.69448C12.4208 7.48891 12.565 7.31321 12.75 7.1896C12.935 7.06598 13.1525 7 13.375 7C13.6734 7 13.9595 7.11853 14.1705 7.3295C14.3815 7.54048 14.5 7.82663 14.5 8.125Z" fill="currentColor"/>
</svg>
