<svg viewBox="0 0 16 12" fill="none">
<path d="M15.3194 1.7925C14.8413 0.968127 13.5794 0.782502 11.6631 1.25125C10.776 0.565278 9.71422 0.141862 8.59847 0.0291056C7.48272 -0.0836511 6.35772 0.118771 5.35125 0.613377C4.34479 1.10798 3.49722 1.87495 2.90482 2.82714C2.31242 3.77933 1.99894 4.87857 2 6C2.00008 6.25723 2.01636 6.5142 2.04875 6.76938C0.318127 8.5625 0.343127 9.625 0.681252 10.2075C1 10.76 1.665 11 2.54 11C3.14752 10.9874 3.75145 10.9035 4.33938 10.75C5.22663 11.4353 6.28826 11.8581 7.40372 11.9704C8.51919 12.0828 9.64379 11.8801 10.6499 11.3854C11.6559 10.8907 12.5031 10.1239 13.0953 9.17195C13.6875 8.22001 14.0009 7.1211 14 6C14.0001 5.74403 13.9841 5.48831 13.9519 5.23438C14.7331 4.42188 15.2531 3.65 15.43 2.98938C15.5519 2.53188 15.515 2.12938 15.3194 1.7925ZM8 1C9.13247 1.00117 10.2311 1.38621 11.1165 2.09227C12.0019 2.79833 12.6218 3.7837 12.875 4.8875C11.8088 5.89125 10.3656 6.92063 8.99563 7.70813C7.27375 8.69625 5.78 9.3125 4.58875 9.65C3.85505 8.9657 3.34436 8.07636 3.12317 7.09776C2.90197 6.11915 2.98053 5.09663 3.3486 4.16329C3.71667 3.22996 4.35722 2.42906 5.18683 1.86486C6.01645 1.30066 6.99671 0.999295 8 1ZM1.54625 9.70563C1.455 9.54875 1.50563 9.25313 1.685 8.89313C1.86238 8.55583 2.07819 8.24019 2.32813 7.9525C2.57588 8.67031 2.95763 9.33457 3.45313 9.91C2.375 10.0913 1.7025 9.97563 1.54625 9.70563ZM8 11C7.15696 11.0009 6.32757 10.7871 5.59 10.3788C6.94381 9.89995 8.25008 9.29609 9.49188 8.575C10.8406 7.80063 12.0344 6.96125 12.9963 6.1325C12.9606 7.43447 12.4188 8.67126 11.4859 9.58014C10.553 10.489 9.30246 10.9984 8 11ZM14.4638 2.73063C14.3575 3.125 14.0769 3.57625 13.6744 4.05125C13.4273 3.33258 13.0455 2.66759 12.5494 2.09188C13.4375 1.945 14.26 1.95625 14.4556 2.29438C14.5119 2.3925 14.515 2.53938 14.4638 2.73063Z" fill="currentColor"/>
</svg>
