<?xml version="1.0" encoding="UTF-8"?>
<!DOCTYPE svg PUBLIC "-//W3C//DTD SVG 1.1//EN" "http://www.w3.org/Graphics/SVG/1.1/DTD/svg11.dtd">
<svg xmlns="http://www.w3.org/2000/svg" version="1.1" width="608px" height="511px" style="shape-rendering:geometricPrecision; text-rendering:geometricPrecision; image-rendering:optimizeQuality; fill-rule:evenodd; clip-rule:evenodd" xmlns:xlink="http://www.w3.org/1999/xlink">
<g><path style="opacity:1" fill="#010101" d="M -0.5,-0.5 C 202.167,-0.5 404.833,-0.5 607.5,-0.5C 607.5,169.833 607.5,340.167 607.5,510.5C 404.833,510.5 202.167,510.5 -0.5,510.5C -0.5,340.167 -0.5,169.833 -0.5,-0.5 Z"/></g>
<g><path style="opacity:1" fill="#6e6e6e" d="M 460.5,55.5 C 462.337,55.6395 462.67,56.3061 461.5,57.5C 460.702,57.0431 460.369,56.3764 460.5,55.5 Z"/></g>
<g><path style="opacity:1" fill="#6b6b6b" d="M 128.5,59.5 C 130.337,59.6395 130.67,60.3061 129.5,61.5C 128.702,61.0431 128.369,60.3764 128.5,59.5 Z"/></g>
<g><path style="opacity:1" fill="#828282" d="M 88.5,82.5 C 90.337,82.6395 90.6704,83.3061 89.5,84.5C 88.7025,84.0431 88.3691,83.3764 88.5,82.5 Z"/></g>
<g><path style="opacity:1" fill="#cbcbcb" d="M 37.5,131.5 C 39.337,131.639 39.6704,132.306 38.5,133.5C 37.7025,133.043 37.3691,132.376 37.5,131.5 Z"/></g>
<g><path style="opacity:1" fill="#606060" d="M 35.5,148.5 C 37.337,148.639 37.6704,149.306 36.5,150.5C 35.7025,150.043 35.3691,149.376 35.5,148.5 Z"/></g>
<g><path style="opacity:1" fill="#8b8b8b" d="M 114.5,157.5 C 116.337,157.639 116.67,158.306 115.5,159.5C 114.702,159.043 114.369,158.376 114.5,157.5 Z"/></g>
<g><path style="opacity:1" fill="#868686" d="M 96.5,214.5 C 98.337,214.639 98.6704,215.306 97.5,216.5C 96.7025,216.043 96.3691,215.376 96.5,214.5 Z"/></g>
<g><path style="opacity:1" fill="#7e7e7e" d="M 455.5,307.5 C 456.776,308.386 456.776,309.386 455.5,310.5C 454.438,309.575 454.438,308.575 455.5,307.5 Z"/></g>
</svg>
